# Blender v2.93.2 OBJ File: ''
# www.blender.org
o Cube_Cube.001
v -0.500000 -0.500000 0.500000
v -0.500000 0.500000 0.500000
v -0.500000 -0.500000 -0.500000
v -0.500000 0.500000 -0.500000
v 0.500000 -0.500000 0.500000
v 0.500000 0.500000 0.500000
v 0.500000 -0.500000 -0.500000
v 0.500000 0.500000 -0.500000
vt 0.937018 0.581067
vt 0.721536 0.326888
vt 0.936154 0.325185
vt 0.723450 0.578990
vt 0.507968 0.326072
vt 0.507781 0.583214
vt 0.295449 0.327775
vt 0.295263 0.579877
vt 0.088181 0.328219
vt 0.299836 0.074414
vt 0.509204 0.071450
vt 0.507595 0.832796
vt 0.084844 0.579061
vt 0.296499 0.327775
vt 0.299276 0.830719
vn -1.0000 0.0000 0.0000
vn 0.0000 0.0000 -1.0000
vn 1.0000 0.0000 0.0000
vn 0.0000 0.0000 1.0000
vn 0.0000 -1.0000 0.0000
vn 0.0000 1.0000 0.0000
s off
f 2/1/1 3/2/1 1/3/1
f 4/4/2 7/5/2 3/2/2
f 8/6/3 5/7/3 7/5/3
f 6/8/4 1/9/4 5/7/4
f 7/5/5 1/10/5 3/11/5
f 4/12/6 6/8/6 8/6/6
f 2/1/1 4/4/1 3/2/1
f 4/4/2 8/6/2 7/5/2
f 8/6/3 6/8/3 5/7/3
f 6/8/4 2/13/4 1/9/4
f 7/5/5 5/14/5 1/10/5
f 4/12/6 2/15/6 6/8/6
