# Blender v2.93.2 OBJ File: 'phantom_ala_21.blend'
# www.blender.org
o Cube
v 0.500000 0.060000 -0.500000
v 0.500000 -0.060000 -0.500000
v 0.500000 0.060000 0.500000
v 0.500000 -0.060000 0.500000
v -0.500000 0.060000 -0.500000
v -0.500000 -0.060000 -0.500000
v -0.500000 0.060000 0.500000
v -0.500000 -0.060000 0.500000
vt 0.657651 0.579888
vt 0.508472 0.410581
vt 0.656276 0.411027
vt 0.405929 0.390785
vt 0.508852 0.391382
vt 0.496107 0.373822
vt 0.425324 0.362277
vt 0.496193 0.363794
vt 0.656750 0.392092
vt 0.509314 0.242752
vt 0.657196 0.244056
vt 0.759845 0.410316
vt 0.759713 0.391703
vt 0.509110 0.578106
vt 0.405022 0.410756
vt 0.425238 0.372305
vn 0.0000 1.0000 0.0000
vn 0.0000 0.0000 1.0000
vn -1.0000 0.0000 0.0000
vn 0.0000 -1.0000 0.0000
vn 1.0000 0.0000 0.0000
vn 0.0000 0.0000 -1.0000
s off
f 5/1/1 3/2/1 1/3/1
f 3/2/2 8/4/2 4/5/2
f 7/6/3 6/7/3 8/8/3
f 2/9/4 8/10/4 6/11/4
f 1/3/5 4/5/5 2/9/5
f 5/12/6 2/9/6 6/13/6
f 5/1/1 7/14/1 3/2/1
f 3/2/2 7/15/2 8/4/2
f 7/6/3 5/16/3 6/7/3
f 2/9/4 4/5/4 8/10/4
f 1/3/5 3/2/5 4/5/5
f 5/12/6 1/3/6 2/9/6
