# Blender v2.93.2 OBJ File: ''
# www.blender.org
o Cube_Cube.001
v -1.500000 -0.500000 1.000000
v -1.500000 0.500000 1.000000
v -1.500000 -0.500000 -1.000000
v -1.500000 0.500000 -1.000000
v 1.500000 -0.500000 1.000000
v 1.500000 0.500000 1.000000
v 1.500000 -0.500000 -1.000000
v 1.500000 0.500000 -1.000000
vt 0.941370 0.400773
vt 0.861685 0.383596
vt 0.941260 0.383706
vt 0.861796 0.400663
vt 0.741434 0.383707
vt 0.741379 0.400774
vt 0.661859 0.383487
vt 0.661805 0.400775
vt 0.541858 0.383751
vt 0.662625 0.303962
vt 0.740972 0.304004
vt 0.741325 0.480345
vt 0.541950 0.400672
vt 0.662246 0.480787
vn -1.0000 0.0000 0.0000
vn 0.0000 0.0000 -1.0000
vn 1.0000 0.0000 0.0000
vn 0.0000 0.0000 1.0000
vn 0.0000 -1.0000 0.0000
vn 0.0000 1.0000 0.0000
s off
f 2/1/1 3/2/1 1/3/1
f 4/4/2 7/5/2 3/2/2
f 8/6/3 5/7/3 7/5/3
f 6/8/4 1/9/4 5/7/4
f 7/5/5 1/10/5 3/11/5
f 4/12/6 6/8/6 8/6/6
f 2/1/1 4/4/1 3/2/1
f 4/4/2 8/6/2 7/5/2
f 8/6/3 6/8/3 5/7/3
f 6/8/4 2/13/4 1/9/4
f 7/5/5 5/7/5 1/10/5
f 4/12/6 2/14/6 6/8/6
