# Blender v2.93.2 OBJ File: ''
# www.blender.org
o Cube
v 2.000000 0.250000 -0.500000
v 2.000000 -0.250000 -0.500000
v 2.000000 0.250000 0.500000
v 2.000000 -0.250000 0.500000
v -2.000000 0.250000 -0.500000
v -2.000000 -0.250000 -0.500000
v -2.000000 0.250000 0.500000
v -2.000000 -0.250000 0.500000
vt 0.700758 0.861869
vt 0.635617 0.781988
vt 0.701544 0.782094
vt 0.516315 0.756776
vt 0.635237 0.755698
vt 0.888163 0.782175
vt 0.821486 0.755998
vt 0.888081 0.755738
vt 0.701522 0.755665
vt 0.635497 0.675851
vt 0.701304 0.675942
vt 0.821658 0.782277
vt 0.635357 0.861763
vt 0.516487 0.782232
vn 0.0000 1.0000 0.0000
vn 0.0000 0.0000 1.0000
vn -1.0000 0.0000 0.0000
vn 0.0000 -1.0000 0.0000
vn 1.0000 0.0000 0.0000
vn 0.0000 0.0000 -1.0000
s off
f 5/1/1 3/2/1 1/3/1
f 3/2/2 8/4/2 4/5/2
f 7/6/3 6/7/3 8/8/3
f 2/9/4 8/10/4 6/11/4
f 1/3/5 4/5/5 2/9/5
f 5/12/6 2/9/6 6/7/6
f 5/1/1 7/13/1 3/2/1
f 3/2/2 7/14/2 8/4/2
f 7/6/3 5/12/3 6/7/3
f 2/9/4 4/5/4 8/10/4
f 1/3/5 3/2/5 4/5/5
f 5/12/6 1/3/6 2/9/6
