# Blender v2.93.2 OBJ File: ''
# www.blender.org
o Cube
v 0.500000 0.060000 -0.500000
v 0.500000 -0.060000 -0.500000
v 0.500000 0.060000 0.500000
v 0.500000 -0.060000 0.500000
v -0.500000 0.060000 -0.500000
v -0.500000 -0.060000 -0.500000
v -0.500000 0.060000 0.500000
v -0.500000 -0.060000 0.500000
vt 0.832448 0.258156
vt 0.661324 0.187524
vt 0.832982 0.187474
vt 0.540723 0.179204
vt 0.661249 0.179315
vt 0.961158 0.112767
vt 0.851259 0.094841
vt 0.961292 0.097196
vt 0.832282 0.179264
vt 0.661591 0.126719
vt 0.831916 0.126089
vt 0.951796 0.187111
vt 0.952065 0.179593
vt 0.660983 0.258373
vt 0.540424 0.187388
vt 0.851125 0.110411
vn 0.0000 1.0000 0.0000
vn 0.0000 0.0000 1.0000
vn -1.0000 0.0000 0.0000
vn 0.0000 -1.0000 0.0000
vn 1.0000 0.0000 0.0000
vn 0.0000 0.0000 -1.0000
s off
f 5/1/1 3/2/1 1/3/1
f 3/2/2 8/4/2 4/5/2
f 7/6/3 6/7/3 8/8/3
f 2/9/4 8/10/4 6/11/4
f 1/3/5 4/5/5 2/9/5
f 5/12/6 2/9/6 6/13/6
f 5/1/1 7/14/1 3/2/1
f 3/2/2 7/15/2 8/4/2
f 7/6/3 5/16/3 6/7/3
f 2/9/4 4/5/4 8/10/4
f 1/3/5 3/2/5 4/5/5
f 5/12/6 1/3/6 2/9/6
