# Blender v2.93.2 OBJ File: ''
# www.blender.org
o Cube
v 1.500000 0.250000 -0.250000
v 1.500000 -0.250000 -0.250000
v 1.500000 0.250000 0.250000
v 1.500000 -0.250000 0.250000
v -1.500000 0.250000 -0.250000
v -1.500000 -0.250000 -0.250000
v -1.500000 0.250000 0.250000
v -1.500000 -0.250000 0.250000
vt 0.567748 0.665316
vt 0.555230 0.612074
vt 0.568309 0.612062
vt 0.554968 0.611768
vt 0.475819 0.603893
vt 0.555094 0.603355
vt 0.660822 0.611688
vt 0.647668 0.604075
vt 0.660329 0.604020
vt 0.568140 0.603431
vt 0.555225 0.550449
vt 0.567575 0.550523
vt 0.647899 0.611744
vt 0.555415 0.665153
vt 0.476350 0.611603
vn 0.0000 1.0000 0.0000
vn 0.0000 0.0000 1.0000
vn -1.0000 0.0000 0.0000
vn 0.0000 -1.0000 0.0000
vn 1.0000 0.0000 0.0000
vn 0.0000 0.0000 -1.0000
s off
f 5/1/1 3/2/1 1/3/1
f 3/4/2 8/5/2 4/6/2
f 7/7/3 6/8/3 8/9/3
f 2/10/4 8/11/4 6/12/4
f 1/3/5 4/6/5 2/10/5
f 5/13/6 2/10/6 6/8/6
f 5/1/1 7/14/1 3/2/1
f 3/4/2 7/15/2 8/5/2
f 7/7/3 5/13/3 6/8/3
f 2/10/4 4/6/4 8/11/4
f 1/3/5 3/4/5 4/6/5
f 5/13/6 1/3/6 2/10/6
