# Blender v2.93.2 OBJ File: ''
# www.blender.org
o Cube_Cube.001
v -0.500000 -0.250000 0.500000
v -0.500000 0.250000 0.500000
v -0.500000 -0.250000 -0.500000
v -0.500000 0.250000 -0.500000
v 0.500000 -0.250000 0.500000
v 0.500000 0.250000 0.500000
v 0.500000 -0.250000 -0.500000
v 0.500000 0.250000 -0.500000
vt 0.463160 0.779752
vt 0.370555 0.753507
vt 0.462882 0.753709
vt 0.369475 0.779688
vt 0.303203 0.753443
vt 0.302756 0.779974
vt 0.210931 0.753626
vt 0.210067 0.779783
vt 0.144202 0.753461
vt 0.210265 0.709288
vt 0.303233 0.709702
vt 0.302934 0.824215
vt 0.144388 0.779619
vt 0.211124 0.824146
vn -1.0000 0.0000 0.0000
vn 0.0000 0.0000 -1.0000
vn 1.0000 0.0000 0.0000
vn 0.0000 0.0000 1.0000
vn 0.0000 -1.0000 0.0000
vn 0.0000 1.0000 0.0000
s off
f 2/1/1 3/2/1 1/3/1
f 4/4/2 7/5/2 3/2/2
f 8/6/3 5/7/3 7/5/3
f 6/8/4 1/9/4 5/7/4
f 7/5/5 1/10/5 3/11/5
f 4/12/6 6/8/6 8/6/6
f 2/1/1 4/4/1 3/2/1
f 4/4/2 8/6/2 7/5/2
f 8/6/3 6/8/3 5/7/3
f 6/8/4 2/13/4 1/9/4
f 7/5/5 5/7/5 1/10/5
f 4/12/6 2/14/6 6/8/6
